<svg width="300" height="200" viewBox="0 0 400 267" fill="none" xmlns="http://www.w3.org/2000/svg">
<path d="M148 43.6C114.267 47.0667 86.4 57.3333 61.4667 75.3333C49.2 84.1333 39.7333 93.3333 42.9333 93.3333C45.8667 93.3333 46.8 99.8667 45.3333 108.267C44.5333 112.133 41.2 123.467 38 133.333C29.7333 157.733 29.8667 157.2 32.1333 154.533C33.2 153.2 35.3333 151.867 36.9333 151.467C40.2667 150.4 44.2667 155.2 47.3333 164.133C50.5333 172.933 49.6 173.467 46 164.8C44.2667 160.4 41.4667 155.6 39.8667 154.133L36.9333 151.333L39.8667 155.733C44.8 162.8 47.6 172.933 50 191.333C51.2 200.8 52.9333 211.867 53.8667 216L55.6 223.333L56.5333 212C59.0667 183.467 71.6 136 76.8 136C77.8667 136 81.4667 138.533 84.6667 141.467C92.8 149.067 98.4 161.067 100.4 175.333L101.867 186.667L104.933 175.2C108.667 161.2 114.4 148.8 120.667 141.333C123.2 138.267 125.067 135.2 124.667 134.667C124.267 134 126 131.867 128.667 129.867C134.4 125.467 143.333 124.267 148.8 127.067C151.2 128.267 153.6 128.533 155.333 127.867C160.133 126 160.667 126.667 156.533 129.333L152.267 132.133L147.467 129.2C143.867 127.067 141.333 126.533 137.867 127.067C133.333 127.867 124.533 133.067 125.867 134.267C126.267 134.667 128.133 133.733 130 132.267C135.6 127.733 140.533 127.333 146.8 130.933C152 133.867 152.267 133.867 156.267 131.6C163.333 127.467 174.267 129.2 172.4 134.133C171.2 137.2 175.733 142.933 179.067 142.4C183.2 141.867 189.6 130.8 190.4 122.933C191.067 115.467 190.533 114.8 178.667 108C163.6 99.4667 145.467 77.8667 143.2 65.6C142 59.3333 144.8 54.5333 148.933 55.4667C150.8 56 152 55.7333 152 54.8C152 52.5333 160.933 52.9333 161.867 55.3333C163.2 59.0667 165.333 57.3333 165.333 52.6667C165.333 48.8 164.533 47.4667 161.067 45.3333C158.667 43.8667 155.733 42.8 154.667 42.9333C153.6 42.9333 150.533 43.3333 148 43.6ZM161.333 48C163.867 50.5333 164.933 53.3333 163.333 53.3333C162.933 53.3333 160.267 52.1333 157.333 50.6667C150.933 47.4667 150.4 47.3333 150.933 50.2667C151.067 51.6 150.667 52.6667 150 52.6667C149.2 52.6667 148.8 51.8667 148.8 50.9333C149.2 47.8667 147.333 49.3333 143.733 55.0667C140.133 60.8 140 61.0667 142 67.6C146.4 82.4 161.6 100.4 177.867 109.867C182.667 112.667 187.333 115.733 188.133 116.8C189.867 118.933 188.667 125.333 185.067 132.667C181.067 140.667 180.133 141.467 177.2 139.867C174 138.267 173.867 132.133 176.8 126.533L178.8 122.4L165.733 110C152 97.0667 146.667 89.4667 139.333 72.6667L134.933 62.5333L132 65.6C125.067 72.9333 115.867 97.0667 110 123.6C108.133 131.467 107.067 134.933 107.467 131.333C110.133 108.133 127.467 61.3333 133.2 61.3333C134 61.3333 135.867 59.3333 137.467 56.9333C139.2 54.6667 139.733 53.3333 138.667 54.2667C137.6 55.0667 136.267 55.7333 135.6 55.7333C132.667 55.8667 126.533 57.7333 125.867 58.8C124.933 60.5333 132 58.8 134.533 56.8C136 55.7333 136.267 55.7333 135.6 56.9333C135.067 57.8667 130.8 60.4 126.133 62.6667C111.067 69.7333 92 93.2 79.8667 119.6C76.9333 126 71.4667 140 67.8667 150.667C60.2667 173.2 59.3333 173.6 66 151.333C73.6 126.267 87.4667 97.6 99.6 81.3333C106.667 72.1333 126.533 52.1333 131.2 49.7333C137.067 46.6667 140.533 46 150.133 45.6C157.2 45.4667 159.2 45.8667 161.333 48ZM126 49.2C124.533 49.8667 118 52 111.333 54C104.8 56 94.4 59.8667 88.4 62.6667C82.2667 65.4667 77.3333 67.4667 77.3333 67.2C77.3333 65.7333 102.8 54.6667 113.333 51.4667C124.267 48.2667 131.733 46.9333 126 49.2ZM122.667 53.8667C122.667 54.1333 119.333 56.6667 115.333 59.3333C102.267 68 87.8667 80 73.4667 94.5333C65.7333 102.267 61.8667 105.6 64.9333 102C72.4 92.8 94.9333 71.2 104.667 63.8667C114.667 56.1333 122.667 51.7333 122.667 53.8667ZM77.3333 106.667C77.3333 107.333 77.0667 108 76.8 108C76.4 108 75.7333 107.333 75.3333 106.667C74.9333 105.867 75.2 105.333 75.8667 105.333C76.6667 105.333 77.3333 105.867 77.3333 106.667ZM138.667 109.2C138.667 110 138.133 110.933 137.333 111.333C136.667 111.733 136 111.2 136 110.133C136 108.933 136.667 108 137.333 108C138.133 108 138.667 108.533 138.667 109.2ZM72 129.867C72 130.267 71.4667 130.933 70.6667 131.333C70 131.733 69.3333 131.467 69.3333 130.8C69.3333 130 70 129.333 70.6667 129.333C71.4667 129.333 72 129.6 72 129.867ZM80.6667 134.667C81.0667 135.333 82.2667 135.6 83.3333 135.067C84.5333 134.667 85.3333 135.2 85.3333 136.133C85.3333 137.067 86.6667 139.333 88.2667 141.2L91.3333 144.667L87.3333 141.2C85.0667 139.2 81.6 136.667 79.3333 135.6C76.8 134.267 76.1333 133.467 77.6 133.333C78.8 133.333 80.1333 133.867 80.6667 134.667ZM106.267 143.6C105.867 144.933 105.6 144.133 105.6 142C105.6 139.733 105.867 138.8 106.267 139.6C106.533 140.533 106.533 142.4 106.267 143.6ZM60.9333 174.933C60.5333 176 60.1333 175.6 60.1333 174.133C60 172.667 60.4 171.867 60.8 172.4C61.2 172.8 61.3333 174 60.9333 174.933Z" fill="white"/>
<path d="M176.667 129.067C175.067 130.667 176.133 131.733 178.667 131.067C180.133 130.667 181.333 129.867 181.333 129.467C181.333 128.267 177.733 128.133 176.667 129.067Z" fill="white"/>
<path d="M239.067 45.3333C235.467 47.4667 234.667 48.8 234.667 52.6667C234.667 57.6 236 58.5333 238.667 55.3333C240.533 53.0667 247.467 52.6667 248.667 54.6667C249.2 55.4667 250.667 55.7333 251.867 55.3333C255.2 54.2667 257.867 60 256.8 65.7333C254.533 77.8667 236.4 99.4667 220.667 108.533C216 111.333 211.333 114.533 210.533 115.467C208.133 118.4 210 128.8 214.267 135.733C220 145.2 225.867 144.533 227.867 134.267C228.667 130.4 229.2 130 234.4 129.6C237.867 129.333 241.067 130 242.933 131.2C246.667 133.867 249.867 133.867 251.867 131.467C255.733 126.8 263.733 127.733 273.333 134.133C275.2 135.333 274.667 134.533 272 132.133C265.733 126.4 259.467 125.467 252.933 129.067C247.733 131.867 247.733 131.867 242.8 129.333C237.733 126.667 238.8 125.733 244.667 128C247.333 129.067 248.933 128.8 251.067 127.333C258 122.533 275.2 128.133 276.667 135.733C276.933 137.2 279.2 141.067 281.733 144.533C286.8 151.067 293.333 166.8 296.133 179.067L298 186.667L299.6 175.067C300.667 167.467 302.667 160.4 305.333 155.2C309.333 146.933 319.6 136 323.2 136C328.133 136 339.733 178.133 342.933 207.867L344.533 223.067L346.133 215.867C347.067 211.867 348.8 200.8 350 191.333C352.4 172.933 355.2 162.8 360.133 155.733L363.067 151.333L360.133 154.133C358.533 155.6 355.733 160.4 354 164.8C350.4 173.467 349.467 172.933 352.667 164.133C355.733 155.2 359.733 150.4 363.067 151.467C364.667 151.867 366.8 153.2 367.867 154.533C370 157.2 370.4 158.133 362 133.333C354.667 111.467 352.8 101.733 354.667 96.6667C355.6 94 356.667 93.3333 358.4 93.8667C362.8 95.4667 343.733 78.5333 333.6 71.8667C312.8 58.2667 291.333 49.7333 269.333 46.1333C246 42.5333 243.733 42.4 239.067 45.3333ZM267.867 49.2C273.467 52.1333 292.267 70.6667 300.533 81.4667C307.6 90.8 319.333 112.4 325.467 127.333C331.067 141.2 340.4 171.467 339.6 173.733C339.333 174.533 337.867 170.133 336.267 164.267C323.467 116.133 297.733 74.2667 273.733 62.5333C269.067 60.1333 264.8 57.6 264.4 56.8C263.733 55.7333 264 55.7333 265.467 56.8C267.6 58.4 274.667 60.4 274.667 59.3333C274.667 58.2667 265.067 54.5333 264.267 55.3333C263.867 55.7333 262.667 55.2 261.467 54.2667C260.4 53.4667 260.8 54.6667 262.533 56.9333C264.133 59.3333 266 61.3333 266.8 61.3333C272.533 61.3333 289.867 108.4 292.533 131.333C292.933 134.933 291.867 131.467 290 123.6C284.267 97.6 275.067 73.3333 268.4 66.4L264.933 62.8L260.667 72.6667C253.467 89.3333 249.467 94.8 235.067 109.067L221.2 122.667L223.2 126.933C226.133 132.667 225.867 138.267 222.667 140C220.4 141.2 219.6 140.533 216.133 134.533C211.333 126.133 209.867 119.2 212.133 116.533C213.067 115.333 216 113.333 218.667 112C233.067 104.667 247.733 89.6 255.467 74.2667C259.867 65.7333 259.867 60.2667 255.6 53.8667C253.467 50.8 252 49.6 252 50.9333C252 54.2667 249.867 54.9333 247.867 52.4C246.533 50.8 246.533 50.5333 247.733 51.2C248.667 51.7333 249.333 51.3333 249.333 50.1333C249.333 47.4667 249.6 47.4667 242.933 50.6667C240 52.1333 237.067 53.3333 236.667 53.3333C235.067 53.3333 236.133 50.5333 238.667 48C241.067 45.6 242.667 45.3333 251.867 45.8667C258.933 46.2667 264.133 47.3333 267.867 49.2ZM292.267 53.4667C298.667 55.6 307.467 59.0667 311.6 61.3333C320.667 66.1333 319.467 65.8667 304 59.4667C297.733 56.9333 287.867 53.2 282 51.3333C276.133 49.6 273.467 48.4 276 48.8C278.533 49.2 285.867 51.3333 292.267 53.4667ZM289.733 60C301.067 67.6 322.133 87.2 333.867 100.933C340.8 108.933 340.4 108.667 330.533 98.4C316.267 83.6 304.933 73.7333 290.667 63.7333C277.467 54.4 276.267 53.3333 278.267 53.3333C279.067 53.3333 284.267 56.4 289.733 60ZM325.333 68.8C325.333 69.0667 324.133 68.8 322.667 68C321.2 67.2 320 66.2667 320 65.8667C320 65.6 321.2 65.8667 322.667 66.6667C324.133 67.4667 325.333 68.4 325.333 68.8ZM336.667 85.3333C337.067 86 336.8 86.6667 336.133 86.6667C335.333 86.6667 334.667 86 334.667 85.3333C334.667 84.5333 334.933 84 335.2 84C335.6 84 336.267 84.5333 336.667 85.3333ZM325.333 105.867C325.333 106.267 324.8 106.933 324 107.333C323.333 107.733 322.667 107.467 322.667 106.8C322.667 106 323.333 105.333 324 105.333C324.8 105.333 325.333 105.6 325.333 105.867ZM264 110.133C264 111.2 263.467 111.733 262.667 111.333C262 110.933 261.333 110 261.333 109.2C261.333 108.533 262 108 262.667 108C263.467 108 264 108.933 264 110.133ZM320.667 135.6C318.533 136.667 314.933 139.2 312.667 141.2L308.667 144.667L311.733 141.2C313.333 139.333 314.667 137.067 314.667 136.133C314.667 135.2 315.467 134.667 316.667 135.067C317.733 135.6 318.933 135.333 319.333 134.667C319.867 133.867 321.2 133.333 322.4 133.333C323.867 133.467 323.2 134.267 320.667 135.6ZM294.267 143.6C293.867 144.933 293.6 144.133 293.6 142C293.6 139.733 293.867 138.8 294.267 139.6C294.533 140.533 294.533 142.4 294.267 143.6ZM350.267 177.6C349.867 178.533 349.6 177.867 349.6 176C349.6 174.133 349.867 173.467 350.267 174.267C350.533 175.2 350.533 176.8 350.267 177.6Z" fill="white"/>
<path d="M218.667 129.067C218.667 129.6 219.867 130.8 221.467 131.733C223.867 133.333 224.133 133.2 223.733 131.2C223.333 129.067 218.667 127.2 218.667 129.067Z" fill="white"/>
</svg>
